<?xml version="1.0" encoding="iso-8859-1"?>
<!-- Uploaded to: SVG Repo, www.svgrepo.com, Generator: SVG Repo Mixer Tools -->
<svg height="800px" width="800px" version="1.1" id="Capa_1" xmlns="http://www.w3.org/2000/svg" xmlns:xlink="http://www.w3.org/1999/xlink" 
	 viewBox="0 0 52.191 52.191" xml:space="preserve">
<g>
	<g>
		<path style="fill:#00A36C;" d="M23.39,4.707c-0.128,0.255-0.241,0.524-0.336,0.806c-1.446,4.302-6.514,6.027-10.55,6.716
			c-0.876,0.149-1.585,0.416-2.141,0.756c-1.055-1.616-1.873-2.848-1.873-2.848C7.693,9.405,6.933,8.99,6.085,9.47l-1.007,0.57
			c-0.848,0.479-0.891,1.421-0.666,2.406c0,0,3.527,7.544,4.977,10.105c1.448,2.56,17.025,28.771,17.025,28.771
			c0.748,0.71,1.558,1.147,2.406,0.667l1.005-0.569c0.85-0.48,0.89-1.386,0.667-2.405c0,0-5.956-11.05-10.611-19.635
			c0.804,0.2,1.62,0.259,2.399,0.125c4.036-0.689,9.104-2.414,10.551-6.715c0.223-0.663,0.551-1.241,0.945-1.758L23.39,4.707z"/>
		<path style="fill:#00A36C;" d="M47.271,12.888l-4.444-7.853c-1.473-2.601-5.076-5.084-8.065-5.034
			c-3.086,0.051-6.822,0.551-9.313,2.349l10.642,16.726c2.44-1.354,5.702-1.754,8.449-1.8
			C47.526,17.226,48.742,15.489,47.271,12.888z"/>
	</g>
</g>
</svg>